{
    "asset" : {
        "generator" : "Khronos glTF Blender I/O v1.4.40",
        "version" : "2.0"
    },
    "scene" : 0,
    "scenes" : [
        {
            "name" : "Scene",
            "nodes" : [
                6
            ]
        }
    ],
    "nodes" : [
        {
            "name" : "Bone.004",
            "rotation" : [
                0,
                0,
                0,
                1
            ],
            "translation" : [
                0,
                2,
                0
            ]
        },
        {
            "children" : [
                0
            ],
            "name" : "Bone.003",
            "rotation" : [
                0,
                0,
                0,
                1
            ],
            "translation" : [
                0,
                2,
                0
            ]
        },
        {
            "children" : [
                1
            ],
            "name" : "Bone.002",
            "rotation" : [
                0,
                0,
                0,
                1
            ],
            "translation" : [
                0,
                2,
                0
            ]
        },
        {
            "children" : [
                2
            ],
            "name" : "Bone.001",
			"rotation" : [
                0,
                0,
                0,
                1
            ],
            "translation" : [
                0,
                2,
                0
            ]
        },
        {
            "children" : [
                3
            ],
            "name" : "Bone",
			"rotation" : [
                0,
                0,
                0,
                1
            ],
            "translation" : [
                0,
                -5,
                0
            ]
        },
        {
            "mesh" : 0,
            "name" : "Cylinder",
            "skin" : 0
        },
        {
            "children" : [
                5,
                4
            ],
            "name" : "Armature"
        }
    ],
    "animations" : [
        {
            "channels" : [
                {
                    "sampler" : 0,
                    "target" : {
                        "node" : 4,
                        "path" : "rotation"
                    }
                },
                {
                    "sampler" : 1,
                    "target" : {
                        "node" : 3,
                        "path" : "rotation"
                    }
                },
                {
                    "sampler" : 2,
                    "target" : {
                        "node" : 2,
                        "path" : "rotation"
                    }
                },
                {
                    "sampler" : 3,
                    "target" : {
                        "node" : 1,
                        "path" : "rotation"
                    }
                },
                {
                    "sampler" : 4,
                    "target" : {
                        "node" : 0,
                        "path" : "rotation"
                    }
                }
            ],
            "name" : "Animation",
            "samplers" : [
                {
                    "input" : 6,
                    "interpolation" : "LINEAR",
                    "output" : 7
                },
                {
                    "input" : 6,
                    "interpolation" : "LINEAR",
                    "output" : 8
                },
                {
                    "input" : 6,
                    "interpolation" : "LINEAR",
                    "output" : 9
                },
                {
                    "input" : 6,
                    "interpolation" : "LINEAR",
                    "output" : 10
                },
                {
                    "input" : 6,
                    "interpolation" : "LINEAR",
                    "output" : 11
                }
            ]
        }
    ],
    "meshes" : [
        {
            "name" : "Cylinder.003",
            "primitives" : [
                {
                    "attributes" : {
                        "POSITION" : 0,
                        "NORMAL" : 1,
                        "JOINTS_0" : 2,
                        "WEIGHTS_0" : 3
                    },
                    "indices" : 4
                }
            ]
        }
    ],
    "skins" : [
        {
			"inverseBindMatrices" : 5,
            "joints" : [
                4,
                3,
                2,
                1,
                0
            ],
            "name" : "Armature",
			"skeleton" : 4
        }
    ],
    "accessors" : [
        {
            "bufferView" : 0,
            "componentType" : 5126,
            "count" : 824,
            "max" : [
                0.5,
                5.100000381469727,
                0.5
            ],
            "min" : [
                -0.5,
                -5.100000381469727,
                -0.5
            ],
            "type" : "VEC3"
        },
        {
            "bufferView" : 1,
            "componentType" : 5126,
            "count" : 824,
            "type" : "VEC3"
        },
        {
            "bufferView" : 2,
            "componentType" : 5121,
            "count" : 824,
            "type" : "VEC4"
        },
        {
            "bufferView" : 3,
            "componentType" : 5126,
            "count" : 824,
            "type" : "VEC4"
        },
        {
            "bufferView" : 4,
            "componentType" : 5123,
            "count" : 1632,
            "type" : "SCALAR"
        },
        {
            "bufferView" : 5,
            "componentType" : 5126,
            "count" : 5,
            "type" : "MAT4"
        },
        {
            "bufferView" : 6,
            "componentType" : 5126,
            "count" : 13,
            "max" : [
                5
            ],
            "min" : [
                0
            ],
            "type" : "SCALAR"
        },
        {
            "bufferView" : 7,
            "componentType" : 5126,
            "count" : 13,
            "type" : "VEC4"
        },
        {
            "bufferView" : 8,
            "componentType" : 5126,
            "count" : 13,
            "type" : "VEC4"
        },
        {
            "bufferView" : 9,
            "componentType" : 5126,
            "count" : 13,
            "type" : "VEC4"
        },
        {
            "bufferView" : 10,
            "componentType" : 5126,
            "count" : 13,
            "type" : "VEC4"
        },
        {
            "bufferView" : 11,
            "componentType" : 5126,
            "count" : 13,
            "type" : "VEC4"
        }
    ],
    "bufferViews" : [
        {
            "buffer" : 0,
            "byteLength" : 9888,
            "byteOffset" : 0
        },
        {
            "buffer" : 0,
            "byteLength" : 9888,
            "byteOffset" : 9888
        },
        {
            "buffer" : 0,
            "byteLength" : 3296,
            "byteOffset" : 19776
        },
        {
            "buffer" : 0,
            "byteLength" : 13184,
            "byteOffset" : 23072
        },
        {
            "buffer" : 0,
            "byteLength" : 3264,
            "byteOffset" : 36256
        },
        {
            "buffer" : 0,
            "byteLength" : 320,
            "byteOffset" : 39520
        },
        {
            "buffer" : 0,
            "byteLength" : 52,
            "byteOffset" : 39840
        },
        {
            "buffer" : 0,
            "byteLength" : 208,
            "byteOffset" : 39892
        },
        {
            "buffer" : 0,
            "byteLength" : 208,
            "byteOffset" : 40100
        },
        {
            "buffer" : 0,
            "byteLength" : 208,
            "byteOffset" : 40308
        },
        {
            "buffer" : 0,
            "byteLength" : 208,
            "byteOffset" : 40516
        },
        {
            "buffer" : 0,
            "byteLength" : 208,
            "byteOffset" : 40724
        }
    ],
    "buffers" : [
        {
            "byteLength" : 40932,
            "uri" : "data:application/octet-stream;base64,"
        }
    ]
}
